<?xml version="1.0" encoding="UTF-8" standalone="no"?>
<!-- Created with Inkscape (http://www.inkscape.org/) -->

<svg
   width="135.41536mm"
   height="135.49086mm"
   viewBox="0 0 135.41536 135.49086"
   version="1.1"
   id="svg5"
   xml:space="preserve"
   xmlns="http://www.w3.org/2000/svg"
   xmlns:svg="http://www.w3.org/2000/svg"><defs
     id="defs2" /><g
     id="layer1"
     transform="translate(-36.324059,-69.670843)"><g
       id="g1711"
       transform="translate(112.12189,2.8118344)"><path
         style="fill:#f1f1f3;stroke-width:0.264583"
         d="m -13.111108,202.17004 c -12.631917,-0.92727 -25.489317,-5.79044 -35.802251,-13.54181 -2.541216,-1.91002 -6.024902,-5.03638 -8.177942,-7.33911 l -1.249986,-1.33689 0.646726,-2.41661 c 3.139273,-11.73044 11.020299,-22.48049 21.564704,-29.41514 2.885003,-1.89736 6.030558,-3.52144 9.260416,-4.78124 1.236927,-0.48246 2.302661,-0.92012 2.368296,-0.97258 0.06564,-0.0524 -0.858581,-0.99521 -2.053809,-2.09502 -6.062991,-5.57895 -9.085945,-12.39072 -9.08503,-20.47174 7.94e-4,-7.89907 2.869221,-14.59472 8.572474,-20.011056 4.399234,-4.177927 10.339537,-6.982967 15.644237,-7.387288 1.036222,-0.07898 2.211462,-0.194467 2.611644,-0.256638 l 0.727604,-0.113038 v 55.159 55.15901 l -1.918229,-0.0462 c -1.055026,-0.0254 -2.45401,-0.0856 -3.108854,-0.13363 z m 9.061979,-0.003 c 0.254661,-0.0666 0.67138,-0.0666 0.926041,0 0.254662,0.0665 0.0463,0.121 -0.463021,0.121 -0.509322,0 -0.717682,-0.0545 -0.46302,-0.121 z m 3.323828,-0.26294 c 0.190994,-0.0764 0.4192,-0.067 0.507119,0.0209 0.08792,0.0879 -0.06835,0.15045 -0.347266,0.13896 -0.308226,-0.0127 -0.370919,-0.0754 -0.159853,-0.15985 z m 2.116666,-0.26458 c 0.190995,-0.0764 0.419201,-0.067 0.507119,0.0209 0.08792,0.0879 -0.06835,0.15045 -0.347266,0.13897 -0.308226,-0.0127 -0.370919,-0.0754 -0.159853,-0.15985 z m 3.175002,-0.52917 c 0.19099,-0.0764 0.4192,-0.067 0.50712,0.0209 0.0879,0.0879 -0.0684,0.15045 -0.34727,0.13896 -0.30823,-0.0127 -0.37092,-0.0754 -0.15985,-0.15985 z m 29.41836,-13.4128 c 0,-0.0549 0.20836,-0.2633 0.46302,-0.46302 0.41964,-0.32911 0.429,-0.31975 0.0999,0.0999 -0.34564,0.44073 -0.56291,0.58088 -0.56291,0.36312 z m 1.71979,-1.4876 c 0.26339,-0.29104 0.53842,-0.52917 0.61118,-0.52917 0.0728,0 -0.0832,0.23813 -0.3466,0.52917 -0.26339,0.29104 -0.53842,0.52917 -0.61118,0.52917 -0.0728,0 0.0832,-0.23813 0.3466,-0.52917 z m 4.23333,-3.96875 c 1.44975,-1.45521 2.69544,-2.64583 2.7682,-2.64583 0.0728,0 -1.05387,1.19062 -2.50362,2.64583 -1.44974,1.45521 -2.69543,2.64583 -2.76819,2.64583 -0.0728,0 1.05386,-1.19062 2.50361,-2.64583 z"
         id="path1596" /><path
         style="fill:#cfeaf2;stroke-width:0.264583"
         d="m -45.787148,156.04781 c 0.568388,-0.58208 1.092967,-1.05833 1.165728,-1.05833 0.07276,0 -0.332756,0.47625 -0.901145,1.05833 -0.568388,0.58208 -1.092967,1.05833 -1.165727,1.05833 -0.07276,0 0.332755,-0.47625 0.901144,-1.05833 z m 2.513541,-2.51354 c 0.341776,-0.3638 0.68094,-0.66146 0.7537,-0.66146 0.07276,0 -0.147341,0.29766 -0.489116,0.66146 -0.341776,0.3638 -0.68094,0.66146 -0.7537,0.66146 -0.07276,0 0.147341,-0.29766 0.489116,-0.66146 z m 17.693333,-12.23698 c -0.329108,-0.41965 -0.319749,-0.429 0.0999,-0.0999 0.254661,0.19972 0.46302,0.40808 0.46302,0.46302 0,0.21777 -0.217273,0.0776 -0.562916,-0.36312 z m -2.227657,-1.98438 -1.045885,-1.12447 1.124479,1.04588 c 1.045755,0.97266 1.246064,1.20307 1.045885,1.20307 -0.04323,0 -0.549243,-0.50601 -1.124479,-1.12448 z m -47.967648,0.0662 c 0,-0.3638 0.06005,-0.51263 0.133452,-0.33073 0.0734,0.1819 0.0734,0.47956 0,0.66146 -0.0734,0.1819 -0.133452,0.0331 -0.133452,-0.33073 z m -0.02089,-9.41475 c 0.0127,-0.30823 0.07539,-0.37092 0.159853,-0.15986 0.07643,0.191 0.06703,0.4192 -0.02089,0.50712 -0.08792,0.0879 -0.150452,-0.0683 -0.138963,-0.34726 z m 39.982776,-8.97384 c 0.0054,-0.43656 0.06469,-0.58313 0.131773,-0.32569 0.06708,0.25743 0.06267,0.61461 -0.0098,0.79375 -0.07248,0.17913 -0.127363,-0.0315 -0.12197,-0.46806 z m 0.01513,-2.64583 c 0.0029,-0.58209 0.05712,-0.78906 0.120407,-0.45994 0.06329,0.32912 0.06088,0.80537 -0.0053,1.05833 -0.06622,0.25297 -0.118004,-0.0163 -0.115067,-0.59839 z m 8.003077,-18.12396 c 0.568388,-0.582076 1.092967,-1.058326 1.165727,-1.058326 0.07276,0 -0.332756,0.47625 -0.901144,1.058326 -0.568389,0.58208 -1.092967,1.05833 -1.165728,1.05833 -0.07276,0 0.332756,-0.47625 0.901145,-1.05833 z m 17.796313,-8.124626 c 0.329118,-0.06329 0.805368,-0.06088 1.058333,0.0053 0.252966,0.06622 -0.01633,0.118003 -0.598397,0.115066 -0.582084,-0.0029 -0.789054,-0.05712 -0.459936,-0.120406 z m -47.561933,-3.913912 c 0.493655,-0.509323 0.957086,-0.926041 1.029847,-0.926041 0.07276,0 -0.271609,0.416718 -0.765264,0.926041 -0.493655,0.509323 -0.957086,0.926042 -1.029846,0.926042 -0.07276,0 0.271608,-0.416719 0.765263,-0.926042 z m 2.910417,-2.910416 c 0.493655,-0.509323 0.957086,-0.926042 1.029846,-0.926042 0.07276,0 -0.271608,0.416719 -0.765263,0.926042 -0.493655,0.509323 -0.957086,0.926041 -1.029847,0.926041 -0.07276,0 0.271609,-0.416718 0.765264,-0.926041 z m 41.754555,-18.304698 c 0.190995,-0.07643 0.419198,-0.06703 0.507119,0.02089 0.08792,0.08792 -0.06835,0.150453 -0.347266,0.138964 -0.308226,-0.0127 -0.370919,-0.07539 -0.159853,-0.159852 z"
         id="path1594" /><path
         style="fill:#dddde0;stroke-width:0.264583"
         d="m -8.084025,147.19088 v -55.159 l 0.727604,0.113038 c 0.400182,0.06217 1.575422,0.177658 2.611644,0.256638 5.3047,0.404321 11.245004,3.209361 15.644234,7.387288 5.70326,5.416336 8.57158,12.111986 8.57248,20.011056 7.9e-4,8.08102 -3.02204,14.89279 -9.08503,20.47174 -1.19523,1.09981 -2.11945,2.04257 -2.05381,2.09502 0.0656,0.0525 1.13137,0.49012 2.36829,0.97258 14.89736,5.81069 26.74821,18.96226 30.82972,34.21354 l 0.65131,2.43376 -2.31291,2.34498 c -9.67939,9.81363 -22.76064,16.64562 -36.31187,18.96475 -3.139378,0.53726 -8.178137,1.04738 -10.384891,1.05136 l -1.256771,0.002 z"
         id="path1592" /><path
         style="fill:#9ed8e9;stroke-width:0.264583"
         d="m -59.041453,179.265 -0.504028,-0.59532 0.595313,0.50403 c 0.559447,0.47366 0.715761,0.6866 0.504028,0.6866 -0.05021,0 -0.318097,-0.26789 -0.595313,-0.59531 z m 88.24943,-23.41563 -0.9118,-0.99218 0.99219,0.91179 c 0.54571,0.50149 0.99219,0.94798 0.99219,0.99219 0,0.20204 -0.2239,0.0117 -1.07258,-0.9118 z m -2.25985,-2.24896 -0.50403,-0.59531 0.59531,0.50403 c 0.55945,0.47366 0.71577,0.6866 0.50403,0.6866 -0.0502,0 -0.3181,-0.26789 -0.59531,-0.59532 z m -69.031109,-1.25677 c 0.26339,-0.29104 0.538422,-0.52916 0.611183,-0.52916 0.07276,0 -0.08321,0.23812 -0.346599,0.52916 -0.26339,0.29105 -0.538422,0.52917 -0.611183,0.52917 -0.07276,0 0.08321,-0.23812 0.346599,-0.52917 z m -33.184318,-8.621 c 0.0127,-0.30823 0.07539,-0.37092 0.159852,-0.15986 0.07643,0.191 0.06703,0.41921 -0.02089,0.50712 -0.08792,0.0879 -0.150453,-0.0683 -0.138964,-0.34726 z m 50.338136,-1.55382 c 0,-0.21188 0.101161,-0.32271 0.224803,-0.2463 0.12364,0.0764 0.156303,0.24977 0.07258,0.38524 -0.213947,0.34618 -0.297381,0.3072 -0.297381,-0.13894 z m -50.60272,-0.56285 c 0.0127,-0.30823 0.07539,-0.37092 0.159853,-0.15985 0.07643,0.19099 0.06703,0.4192 -0.02089,0.50712 -0.08792,0.0879 -0.150453,-0.0684 -0.138965,-0.34727 z m 86.497861,-1.83003 c 0.34177,-0.36381 0.68094,-0.66146 0.7537,-0.66146 0.0728,0 -0.14734,0.29765 -0.48912,0.66146 -0.34178,0.3638 -0.68094,0.66145 -0.7537,0.66145 -0.0728,0 0.14734,-0.29765 0.48912,-0.66145 z m -86.711269,-1.98438 c 0,-0.65484 0.0516,-0.92273 0.114662,-0.59531 0.06306,0.32742 0.06306,0.8632 0,1.19062 -0.06306,0.32743 -0.114662,0.0595 -0.114662,-0.59531 z m 46.460851,0.0661 c -0.329107,-0.41965 -0.319749,-0.42901 0.0999,-0.0999 0.44073,0.34564 0.580888,0.56292 0.363125,0.56292 -0.05494,0 -0.2633,-0.20836 -0.463021,-0.46302 z M -75.74168,131.5738 c 0.002,-0.7276 0.05337,-0.99385 0.114185,-0.59167 0.06082,0.40218 0.05919,0.99749 -0.0036,1.32291 -0.0628,0.32543 -0.11256,-0.004 -0.110573,-0.73124 z m 0.209796,-3.99079 c 0.0127,-0.30823 0.07539,-0.37092 0.159853,-0.15986 0.07643,0.191 0.06703,0.4192 -0.02089,0.50712 -0.08792,0.0879 -0.150453,-0.0683 -0.138965,-0.34726 z m 0.264584,-2.11667 c 0.0127,-0.30823 0.07539,-0.37092 0.159852,-0.15985 0.07643,0.19099 0.06703,0.41919 -0.02089,0.50711 -0.08792,0.0879 -0.150453,-0.0683 -0.138964,-0.34726 z m 39.46341,-3.02066 c 0,-0.50932 0.05445,-0.71768 0.121002,-0.46302 0.06655,0.25466 0.06655,0.67138 0,0.92604 -0.06655,0.25466 -0.121002,0.0463 -0.121002,-0.46302 z m 55.278307,-1.5875 c 0,-0.3638 0.0601,-0.51263 0.13345,-0.33073 0.0734,0.1819 0.0734,0.47956 0,0.66146 -0.0734,0.1819 -0.13345,0.0331 -0.13345,-0.33073 z m 0.01,-2.24896 c 0.005,-0.43656 0.0647,-0.58313 0.13178,-0.32569 0.0671,0.25743 0.0627,0.61462 -0.01,0.79375 -0.0725,0.17913 -0.12736,-0.0315 -0.12197,-0.46806 z m -55.328791,-1.6095 c 0.0127,-0.30822 0.07539,-0.37092 0.15985,-0.15985 0.07643,0.19099 0.06703,0.4192 -0.02087,0.50712 -0.08792,0.0879 -0.150453,-0.0684 -0.138965,-0.34727 z m 6.461392,-15.19149 c 0.26339,-0.29104 0.538421,-0.52917 0.611182,-0.52917 0.07276,0 -0.08321,0.23813 -0.346599,0.52917 -0.26339,0.29104 -0.538422,0.52917 -0.611182,0.52917 -0.07276,0 0.08321,-0.23813 0.346599,-0.52917 z m 40.729189,-1.65365 -0.77711,-0.859886 0.8599,0.777096 c 0.80154,0.72437 0.98151,0.94269 0.7771,0.94269 -0.0455,0 -0.43248,-0.38695 -0.85989,-0.8599 z m -37.554189,-1.521346 c 0.26339,-0.29104 0.538421,-0.52917 0.611182,-0.52917 0.07276,0 -0.08321,0.23813 -0.346599,0.52917 -0.26339,0.29104 -0.538422,0.52917 -0.611182,0.52917 -0.07276,0 0.08321,-0.23813 0.346599,-0.52917 z m 15.163931,-6.530741 c 0.190995,-0.07643 0.419198,-0.06703 0.507119,0.02089 0.08792,0.08792 -0.06835,0.150453 -0.347266,0.138964 -0.308226,-0.01269 -0.370919,-0.07539 -0.159853,-0.159852 z m 3.824957,-0.0026 c 0.257431,-0.06708 0.614619,-0.06267 0.79375,0.0098 0.179131,0.07247 -0.03149,0.127362 -0.468056,0.121969 -0.436563,-0.0054 -0.583126,-0.06469 -0.325694,-0.131773 z m -52.194095,-1.768637 c 0,-0.05494 0.208359,-0.263302 0.463021,-0.463021 0.419644,-0.329108 0.429002,-0.319749 0.09989,0.0999 -0.345643,0.440729 -0.562915,0.580887 -0.562915,0.363126 z m 100.521636,-2.21521 -0.64143,-0.727604 0.7276,0.641433 c 0.68006,0.599516 0.84894,0.813776 0.64143,0.813776 -0.0474,0 -0.37481,-0.327422 -0.7276,-0.727605 z m -97.214345,-1.389062 c 0.263389,-0.291042 0.538421,-0.529167 0.611181,-0.529167 0.07276,0 -0.08321,0.238125 -0.346597,0.529167 -0.263389,0.291042 -0.538421,0.529167 -0.611181,0.529167 -0.07276,0 0.08321,-0.238125 0.346597,-0.529167 z m 94.303925,-1.521354 -0.64143,-0.727604 0.7276,0.641433 c 0.68006,0.599516 0.84894,0.813775 0.64144,0.813775 -0.0474,0 -0.37482,-0.327422 -0.72761,-0.727604 z m -91.261216,-1.224374 c 0,-0.05494 0.208359,-0.263302 0.46302,-0.463021 0.419644,-0.329107 0.429003,-0.319749 0.09989,0.0999 -0.345643,0.440729 -0.562915,0.580887 -0.562915,0.363126 z m 35.669138,-16.485012 c 0.190995,-0.07643 0.419198,-0.06703 0.507119,0.02089 0.08792,0.08792 -0.06835,0.150453 -0.347265,0.138965 -0.308227,-0.0127 -0.37092,-0.07539 -0.159854,-0.159853 z m 2.116667,-0.264583 c 0.190995,-0.07643 0.419198,-0.06703 0.507119,0.02089 0.08792,0.08792 -0.06835,0.150453 -0.347266,0.138964 -0.308226,-0.01269 -0.370919,-0.07539 -0.159853,-0.159852 z m 3.558976,-0.273703 c 0.402183,-0.06082 0.997495,-0.05919 1.322917,0.0036 0.325422,0.0628 -0.0036,0.11256 -0.731242,0.110574 -0.727604,-0.002 -0.993857,-0.05337 -0.591675,-0.114186 z"
         id="path1590" /><path
         style="fill:#67cfe6;stroke-width:0.264583"
         d="m -59.298709,178.75282 c -2.399537,-2.59268 -5.594028,-7.1382 -7.86805,-11.19564 -3.9841,-7.10865 -6.581589,-14.85951 -7.891441,-23.54791 -0.792027,-5.2536 -0.783367,-13.53555 0.01978,-18.91771 1.30998,-8.77862 4.275772,-17.38256 8.38373,-24.32169 11.998273,-20.267412 32.238473,-32.545353 55.594103,-33.724029 l 2.976562,-0.150216 V 79.457138 92.01865 h -1.288259 c -2.996678,0 -7.789777,1.219838 -10.882574,2.769603 -2.572483,1.289039 -5.638244,3.509221 -7.579119,5.488677 -11.13977,11.36128 -10.673741,29.23966 1.043215,40.02119 l 2.137323,1.96669 -0.777272,0.29239 c -16.431592,6.18121 -28.337112,19.30986 -32.823458,36.19562 l -0.232979,0.87689 z m 71.587596,-40.2998 c 0.34178,-0.3638 0.68094,-0.66146 0.7537,-0.66146 0.0728,0 -0.14734,0.29766 -0.48911,0.66146 -0.34178,0.3638 -0.68094,0.66146 -0.7537,0.66146 -0.0728,0 0.14734,-0.29766 0.48911,-0.66146 z m 7.16464,-20.92413 c 0.0127,-0.30823 0.0754,-0.37092 0.15985,-0.15985 0.0764,0.19099 0.067,0.41919 -0.0209,0.50711 -0.0879,0.0879 -0.15046,-0.0683 -0.13897,-0.34726 z M -6.016968,92.102493 c 0.190995,-0.07643 0.419201,-0.06703 0.507119,0.02089 0.08792,0.08792 -0.06835,0.150453 -0.347266,0.138964 -0.308226,-0.01269 -0.370919,-0.07539 -0.159853,-0.159852 z m 45.673585,-5.441655 -0.7771,-0.859896 0.85989,0.777106 c 0.80155,0.724371 0.98151,0.942686 0.77711,0.942686 -0.0455,0 -0.43249,-0.386953 -0.8599,-0.859896 z"
         id="path1588" /><path
         style="fill:#56b3df;stroke-width:0.264583"
         d="m 42.186807,179.76041 c 0,-0.0549 0.20836,-0.2633 0.46302,-0.46302 0.41964,-0.32911 0.429,-0.31975 0.0999,0.0999 -0.34565,0.44073 -0.56292,0.58089 -0.56292,0.36312 z m -16.7025,-27.6152 c -0.32911,-0.41965 -0.31975,-0.42901 0.0999,-0.0999 0.25466,0.19972 0.46302,0.40808 0.46302,0.46302 0,0.21776 -0.21728,0.0776 -0.56292,-0.36312 z m 33.39214,-8.42257 c 0.0127,-0.30823 0.0754,-0.37092 0.15985,-0.15986 0.0764,0.191 0.067,0.41921 -0.0209,0.50712 -0.0879,0.0879 -0.15045,-0.0683 -0.13896,-0.34726 z m -50.41271,-1.41488 c -0.0837,-0.13547 -0.0511,-0.30882 0.0726,-0.38524 0.12365,-0.0764 0.22481,0.0344 0.22481,0.2463 0,0.44614 -0.0834,0.48512 -0.29738,0.13894 z m 50.98237,-4.5162 c 0,-0.50932 0.0545,-0.71768 0.121,-0.46302 0.0666,0.25466 0.0666,0.67138 0,0.92604 -0.0665,0.25466 -0.121,0.0463 -0.121,-0.46302 z m 0.005,-6.21771 c 0.003,-0.58208 0.0571,-0.78905 0.12041,-0.45993 0.0633,0.32911 0.0609,0.80536 -0.005,1.05833 -0.0662,0.25297 -0.118,-0.0163 -0.11506,-0.5984 z m -39.96722,-8.99583 c 0.005,-0.43656 0.0647,-0.58313 0.13177,-0.32569 0.0671,0.25743 0.0627,0.61461 -0.01,0.79375 -0.0725,0.17913 -0.12737,-0.0315 -0.12197,-0.46806 z M -5.501253,66.960689 c 0.329118,-0.06329 0.805368,-0.06088 1.058334,0.0053 0.252965,0.06622 -0.01633,0.118004 -0.598398,0.115067 -0.582083,-0.0029 -0.789053,-0.05712 -0.459936,-0.120406 z"
         id="path1586" /><path
         style="fill:#34a1dc;stroke-width:0.264583"
         d="m 41.805497,177.8216 c -0.98951,-3.93923 -3.59065,-9.88206 -6.04907,-13.82031 -3.74062,-5.99225 -9.30822,-11.73033 -15.25983,-15.7271 -2.56605,-1.72322 -7.55631,-4.31672 -10.00177,-5.19806 -0.91398,-0.32939 -1.71137,-0.67915 -1.77199,-0.77724 -0.0606,-0.0981 0.78565,-0.98973 1.88061,-1.98143 7.02058,-6.35851 10.33631,-15.99921 8.70543,-25.31155 C 17.304937,103.56342 8.152457,94.410936 -3.290037,92.406999 -4.509645,92.193407 -6.087223,92.01865 -6.795766,92.01865 H -8.084025 V 79.438829 66.859008 l 2.711979,0.158835 c 13.377543,0.783497 24.645273,4.466271 34.942093,11.420567 27.31082,18.445264 37.38911,53.12879 24.25577,83.47403 -2.11413,4.8848 -5.79796,10.91681 -9.27005,15.17905 -2.30645,2.83135 -2.22771,2.81044 -2.75027,0.73011 z"
         id="path1584" /></g></g></svg>
