<?xml version="1.0" encoding="UTF-8" standalone="no"?>
<!-- Created with Inkscape (http://www.inkscape.org/) -->

<svg
   width="202.81366mm"
   height="106.85989mm"
   viewBox="0 0 202.81366 106.85989"
   version="1.1"
   id="svg5"
   xmlns:xlink="http://www.w3.org/1999/xlink"
   xmlns="http://www.w3.org/2000/svg"
   xmlns:svg="http://www.w3.org/2000/svg">
  <defs
     id="defs2">
    <linearGradient
       id="linearGradient17894">
      <stop
         style="stop-color:#ff7500;stop-opacity:1;"
         offset="0"
         id="stop17890" />
      <stop
         style="stop-color:#ff6ac3;stop-opacity:1;"
         offset="1"
         id="stop17892" />
    </linearGradient>
    <linearGradient
       id="linearGradient13366">
      <stop
         style="stop-color:#fdec6a;stop-opacity:1;"
         offset="0"
         id="stop13362" />
      <stop
         style="stop-color:#fd4c6a;stop-opacity:1;"
         offset="1"
         id="stop13364" />
    </linearGradient>
    <linearGradient
       xlink:href="#linearGradient13366"
       id="linearGradient13368"
       x1="0.35147929"
       y1="119.50296"
       x2="247.79291"
       y2="119.15148"
       gradientUnits="userSpaceOnUse" />
    <linearGradient
       xlink:href="#linearGradient17894"
       id="linearGradient17896"
       x1="-61.860355"
       y1="66.429581"
       x2="54.127811"
       y2="92.087578"
       gradientUnits="userSpaceOnUse" />
  </defs>
  <g
     id="layer1"
     transform="translate(-4.2125031,-77.67185)">
    <g
       id="g11848"
       transform="translate(40.420119,14.76213)">
      <path
         id="rect788"
         style="opacity:1;fill:#ff6600;fill-opacity:1;stroke:#000000;stroke-width:0.01"
         d="m 18.372874,66.081514 c -0.01179,0.130544 -0.03075,0.261183 -0.03928,0.391707 -0.02291,0.35093 -0.03475,0.701823 -0.03772,1.052649 -0.0023,0.268738 0.01765,0.537449 0.02429,0.806153 0.01261,-0.798592 0.02507,-1.591914 0.05271,-2.250509 z" />
      <path
         id="path6844"
         style="opacity:1;fill:#ff6600;fill-opacity:1;stroke:#000000;stroke-width:0.01"
         d="m -8.5738016,62.914782 c 6.505238,0 11.472787,0.0018 15.260567,0.01395 3.7877796,0.01212 6.3960526,0.03448 8.1824456,0.07493 0.893197,0.02022 1.580769,0.0451 2.107882,0.07545 0.527113,0.03035 0.893578,0.06602 1.144116,0.108521 0.250539,0.0425 0.385079,0.09164 0.448552,0.148311 0.03174,0.02834 0.04579,0.05869 0.04754,0.09095 0.0018,0.03226 -0.0088,0.0664 -0.02584,0.102836 -0.03956,0.08457 -0.07758,0.319299 -0.112655,0.670243 -0.03507,0.350944 -0.06675,0.818075 -0.09405,1.368909 -0.0069,0.139822 -0.0056,0.362614 -0.01189,0.51263 0.01991,-0.220438 0.03586,-0.440955 0.06615,-0.661458 0.101367,-0.57591 0.169873,-1.158338 0.303858,-1.727543 0.06214,-0.263995 0.154921,-0.517578 0.229443,-0.777731 h -0.26355 z" />
      <path
         id="path6842"
         style="opacity:1;fill:url(#linearGradient17896);fill-opacity:1;stroke:#000000;stroke-width:0.01"
         d="m -36.02639,62.914782 v 20.050459 20.049939 l 1.317749,-0.21911 c 0.922185,-0.15356 1.858336,-0.34161 2.784843,-0.55656 0.926507,-0.21495 1.843207,-0.45717 2.727999,-0.71985 0.884791,-0.26268 1.737692,-0.54559 2.534729,-0.84232 0.797036,-0.29674 1.53869,-0.60737 2.201933,-0.924499 0.598572,-0.2862 1.118327,-0.55376 1.600419,-0.8325 0.482092,-0.27875 0.92631,-0.5686 1.372526,-0.89969 0.446216,-0.33109 0.894501,-0.70346 1.385445,-1.1467 0.490944,-0.44325 1.024451,-0.95731 1.640727,-1.57251 0.41847,-0.41775 0.885833,-0.91506 1.372526,-1.45625 0.486693,-0.54118 0.992609,-1.12623 1.487764,-1.71927 0.495155,-0.59304 0.979829,-1.194 1.423686,-1.76733 0.443857,-0.57334 0.846974,-1.1189 1.179773,-1.60094 0.768428,-1.11303 1.440382,-2.05334 2.039669,-2.84737 0.599286,-0.79403 1.1258964,-1.44176 1.6050704,-1.97094 0.239586,-0.26459 0.467511,-0.49944 0.686263,-0.70797 0.218751,-0.20853 0.428474,-0.39112 0.632519,-0.55035 0.204045,-0.15924 0.40243,-0.29515 0.597896,-0.41186 0.195467,-0.11671 0.387827,-0.21412 0.580844,-0.29508 0.198308,-0.0832 0.507128,-0.16324 0.918807,-0.23978 0.411678,-0.0765 0.926571,-0.14931 1.536857,-0.21755 1.22057,-0.1365 2.82316,-0.25487 4.74958097,-0.3483 1.02564803,-0.0498 1.98163203,-0.10583 2.87579303,-0.17053 0.894161,-0.0647 1.726888,-0.13797 2.50579,-0.22118 0.778902,-0.0832 1.503974,-0.17635 2.183846,-0.28164 0.679872,-0.10528 1.314441,-0.22255 1.911511,-0.35346 0.5970696,-0.13091 1.1567386,-0.27554 1.6872356,-0.43564 0.530497,-0.160092 1.0319,-0.335804 1.512052,-0.528645 0.480153,-0.192842 0.938892,-0.402859 1.384929,-0.632003 0.446036,-0.229144 0.879264,-0.477203 1.307413,-0.746208 0.297584,-0.186971 0.560587,-0.359318 0.793234,-0.529683 0.232646,-0.170366 0.435113,-0.339086 0.610815,-0.518315 0.175702,-0.179229 0.324901,-0.369347 0.451652,-0.58291 0.126752,-0.213563 0.230982,-0.450621 0.316777,-0.723987 0.08579,-0.273366 0.152841,-0.582905 0.205672,-0.941545 0.05283,-0.358639 0.09151,-0.766201 0.119372,-1.235583 0.05572,-0.938764 0.06958,-2.124657 0.07338,-3.659208 0.0012,-0.474575 0.0223,-0.823146 0.02946,-1.275891 -0.0066,-0.268704 -0.02657,-0.537415 -0.02429,-0.806153 0.003,-0.350826 0.01481,-0.701719 0.03772,-1.052649 0.0085,-0.130524 0.02748,-0.261163 0.03928,-0.391707 0.0063,-0.150016 0.005,-0.372808 0.01189,-0.51263 0.0273,-0.550834 0.05898,-1.017965 0.09405,-1.368909 0.03507,-0.350944 0.0731,-0.585669 0.112655,-0.670243 0.01704,-0.03644 0.02759,-0.07058 0.02584,-0.102836 -0.0018,-0.03226 -0.01581,-0.06262 -0.04754,-0.09095 -0.06347,-0.05667 -0.198013,-0.105815 -0.448552,-0.148311 -0.250538,-0.0425 -0.617003,-0.07817 -1.144116,-0.108521 -0.527113,-0.03035 -1.214685,-0.05522 -2.107882,-0.07545 -1.786393,-0.04045 -4.394666,-0.06281 -8.1824456,-0.07493 -3.78778,-0.01212 -8.755329,-0.01395 -15.260567,-0.01395 z" />
      <path
         id="path6840"
         style="opacity:1;fill:#ff6600;fill-opacity:1;stroke:#000000;stroke-width:0.01"
         d="m -36.202606,103.08546 c 0.502686,-0.0536 1.008434,-0.0847 1.508951,-0.15245 0.624454,-0.0846 1.246689,-0.1811 1.866553,-0.29145 0.619864,-0.11036 1.237122,-0.23444 1.85105,-0.37466 0.613927,-0.14022 1.224768,-0.2966 1.831412,-0.47077 0.606645,-0.17417 1.209111,-0.36657 1.807125,-0.57878 0.777975,-0.3049 1.367208,-0.52212 1.944584,-0.76067 0.577377,-0.23856 1.142772,-0.498309 1.873788,-0.888319 0.551838,-0.29442 1.084451,-0.61571 1.599385,-0.96067 0.514935,-0.34495 1.012217,-0.71327 1.493966,-1.10174 0.48175,-0.38847 0.948149,-0.79719 1.400431,-1.22215 0.452283,-0.42495 0.890699,-0.86642 1.317233,-1.32084 0.531933,-0.56578 0.898287,-0.94229 1.250569,-1.32912 0.352283,-0.38683 0.690202,-0.78411 1.166337,-1.39062 0.700602,-0.89242 1.350056,-1.82296 1.99006,-2.76055 0.640004,-0.93759 1.270846,-1.88198 1.934765,-2.80086 0.344089,-0.48039 0.690693,-0.9731 1.0542,-1.45418 0.3635064,-0.48107 0.7438434,-0.95048 1.1544514,-1.38389 0.205304,-0.21671 0.418517,-0.42439 0.640788,-0.62012 0.222271,-0.19573 0.453384,-0.37958 0.696082,-0.54829 0.242697,-0.1687 0.496675,-0.32221 0.76326,-0.45785 0.266585,-0.13564 0.54581,-0.25332 0.839742,-0.34985 0.293815,-0.0707 0.584042,-0.15957 0.8816,-0.21239 0.42479,-0.0754 0.852393,-0.11586 1.281576,-0.13591 0.429183,-0.02 0.860262,-0.0194 1.291394,-0.0134 0.431132,0.006 0.862308,0.0175 1.292944,0.0202 0.430636,0.003 0.86059897,-0.004 1.28829397,-0.0336 0.978921,-0.0355 1.95873903,-0.0824 2.93728803,-0.14986 0.978549,-0.0675 1.955869,-0.15575 2.928504,-0.2744 0.972634,-0.11866 1.940971,-0.26736 2.902148,-0.45631 0.961177,-0.18894 1.9150796,-0.41823 2.8592566,-0.6966 0.642603,-0.22926 1.334339,-0.470942 2.026233,-0.749821 0.345947,-0.13944 0.692117,-0.288143 1.031978,-0.449068 0.339861,-0.160926 0.673269,-0.333983 0.994772,-0.522449 0.321502,-0.188466 0.631035,-0.392371 0.921907,-0.614433 0.290872,-0.222062 0.563351,-0.462274 0.81132,-0.723987 0.247969,-0.261712 0.471249,-0.544726 0.664042,-0.852144 0.192794,-0.307418 0.355245,-0.63921 0.480591,-0.998389 0.06495,-0.186127 0.101053,-0.380007 0.130225,-0.575675 0.02917,-0.195668 0.051,-0.393285 0.08733,-0.587044 -0.0076,-0.702605 -0.04485,-1.404978 -0.09095,-2.106848 -0.04609,-0.701871 -0.101064,-1.403228 -0.142627,-2.104782 -0.02564,-0.432853 -0.0291,-0.865767 -0.03979,-1.298628 -0.0072,0.452745 -0.02828,0.801316 -0.02946,1.275891 -0.0038,1.534551 -0.01766,2.720444 -0.07338,3.659208 -0.02786,0.469382 -0.06654,0.876944 -0.119372,1.235583 -0.05283,0.35864 -0.119878,0.668179 -0.205672,0.941545 -0.08579,0.273366 -0.190025,0.510424 -0.316777,0.723987 -0.126751,0.213563 -0.27595,0.403681 -0.451652,0.58291 -0.175702,0.179229 -0.378169,0.347949 -0.610815,0.518315 -0.232647,0.170365 -0.49565,0.342712 -0.793234,0.529683 -0.428149,0.269005 -0.861377,0.517064 -1.307413,0.746208 -0.446037,0.229144 -0.904776,0.439161 -1.384929,0.632003 -0.480152,0.192841 -0.981555,0.368553 -1.512052,0.528645 -0.530497,0.1601 -1.090166,0.30473 -1.6872356,0.43564 -0.59707,0.13091 -1.231639,0.24818 -1.911511,0.35346 -0.679872,0.10529 -1.404944,0.19843 -2.183846,0.28164 -0.778902,0.0832 -1.611629,0.15648 -2.50579,0.22118 -0.894161,0.0647 -1.850145,0.12078 -2.87579303,0.17053 -1.92642097,0.0934 -3.52901097,0.2118 -4.74958097,0.3483 -0.610286,0.0682 -1.125179,0.14102 -1.536857,0.21755 -0.411679,0.0765 -0.720499,0.15661 -0.918807,0.23978 -0.193017,0.081 -0.385377,0.17837 -0.580844,0.29508 -0.195466,0.11671 -0.393851,0.25262 -0.597896,0.41186 -0.204045,0.15923 -0.413768,0.34182 -0.632519,0.55035 -0.218752,0.20853 -0.446677,0.44338 -0.686263,0.70797 -0.479174,0.52918 -1.0057844,1.17691 -1.6050704,1.97094 -0.599287,0.79403 -1.271241,1.73434 -2.039669,2.84737 -0.332799,0.48204 -0.735916,1.0276 -1.179773,1.60094 -0.443857,0.57333 -0.928531,1.17429 -1.423686,1.76733 -0.495155,0.59304 -1.001071,1.17809 -1.487764,1.71927 -0.486693,0.54119 -0.954056,1.0385 -1.372526,1.45625 -0.616276,0.6152 -1.149783,1.12926 -1.640727,1.57251 -0.490944,0.44324 -0.939229,0.81561 -1.385445,1.1467 -0.446216,0.33109 -0.890434,0.62094 -1.372526,0.89969 -0.482092,0.27874 -1.001847,0.5463 -1.600419,0.8325 -0.663243,0.317129 -1.404897,0.627759 -2.201933,0.924499 -0.797037,0.29673 -1.649938,0.57964 -2.534729,0.84232 -0.884792,0.26268 -1.801492,0.5049 -2.727999,0.71985 -0.926507,0.21495 -1.862658,0.403 -2.784843,0.55656 l -1.317749,0.21911 V 82.965241 62.914782 h -0.176216 z" />
      <path
         id="path6838"
         style="opacity:1;fill:url(#linearGradient13368);fill-opacity:1;stroke:#000000;stroke-width:0.01"
         d="m -36.202606,105.42433 v 64.34026 H 166.60103 V 62.914782 H 22.865623 c -0.127018,0.285832 -0.271839,0.562585 -0.377238,0.858863 -0.196527,0.552434 -0.356598,1.120553 -0.486276,1.697054 -0.125576,0.558265 -0.18441,1.129712 -0.276469,1.69447 -0.07226,0.701486 -0.09462,1.402011 -0.08733,2.10168 0.0073,0.69967 0.04408,1.398569 0.09147,2.097547 0.04739,0.698977 0.104912,1.39762 0.152962,2.097029 0.04805,0.69941 0.08685,1.399682 0.09612,2.100647 -0.04125,0.205757 -0.06677,0.415789 -0.100252,0.623735 -0.03348,0.207946 -0.07497,0.413815 -0.147278,0.610815 -0.137703,0.375172 -0.312247,0.721424 -0.517281,1.042831 -0.205034,0.321406 -0.440395,0.61797 -0.700733,0.891935 -0.260337,0.273964 -0.54543,0.525765 -0.849043,0.75861 -0.303614,0.232843 -0.625803,0.446353 -0.960665,0.644403 -0.334863,0.19805 -0.682546,0.38026 -1.03663,0.54984 -0.354083,0.16958 -0.714625,0.32645 -1.075903,0.47387 -0.722556,0.29486 -1.447318,0.55215 -2.126485,0.79634 -0.94133,0.28139 -1.892371,0.51676 -2.850472,0.7152 -0.958101,0.19843 -1.9232386,0.35952 -2.8928466,0.49247 -0.969607,0.13296 -1.943867,0.23804 -2.919718,0.32298 -0.975851,0.0849 -1.953741,0.15022 -2.930571,0.20464 -0.991433,0.0508 -1.98302103,0.0446 -2.97087803,0.076 -0.493928,0.0157 -0.98684597,0.0408 -1.47846197,0.0868 -0.491617,0.046 -0.981835,0.11307 -1.470195,0.21291 -0.289009,0.0831 -0.563793,0.18757 -0.826306,0.31006 -0.262513,0.12248 -0.512555,0.26321 -0.751892,0.41909 -0.239338,0.15589 -0.467815,0.32675 -0.687297,0.51005 -0.219482,0.18329 -0.43009,0.37872 -0.633036,0.58343 -0.405893,0.40941 -0.781861,0.85606 -1.141532,1.31516 -0.359672,0.45911 -0.70282,0.93081 -1.042831,1.39165 -0.678059,0.90989 -1.317107,1.84959 -1.9621544,2.78484 -0.645047,0.93525 -1.296157,1.86624 -1.998844,2.75797 -0.495627,0.62897 -0.832205,1.02348 -1.183391,1.40715 -0.351185,0.38367 -0.716914,0.75611 -1.271757,1.34204 -0.431065,0.4629 -0.874565,0.91254 -1.331701,1.34462 -0.457137,0.43208 -0.928251,0.84709 -1.415418,1.24178 -0.487167,0.3947 -0.990379,0.769089 -1.511535,1.119829 -0.521157,0.35075 -1.059917,0.67749 -1.619023,0.97772 -0.77311,0.41515 -1.33004,0.67458 -1.900143,0.91054 -0.570102,0.23596 -1.153552,0.44857 -1.979724,0.77101 -0.603334,0.21372 -1.211225,0.40719 -1.823144,0.58291 -0.61192,0.17572 -1.227745,0.33353 -1.846916,0.47543 -0.619171,0.14189 -1.241979,0.26809 -1.867069,0.38033 -0.625091,0.11225 -1.252379,0.21088 -1.882056,0.29766 -1.259354,0.17355 -2.526964,0.30013 -3.796667,0.39687 -0.227082,0.0173 -0.4544,0.0233 -0.681612,0.0388 z" />
      <path
         id="path6836"
         style="opacity:1;fill:#fdec6a;fill-opacity:1;stroke:#000000;stroke-width:0.01"
         d="m -36.202606,105.42433 c 0.227212,-0.0155 0.45453,-0.0215 0.681612,-0.0388 1.269703,-0.0967 2.537313,-0.22332 3.796667,-0.39687 0.629677,-0.0868 1.256965,-0.18541 1.882056,-0.29766 0.62509,-0.11224 1.247898,-0.23844 1.867069,-0.38033 0.619171,-0.1419 1.234996,-0.29971 1.846916,-0.47543 0.611919,-0.17572 1.21981,-0.36919 1.823144,-0.58291 0.826172,-0.32244 1.409622,-0.53505 1.979724,-0.77101 0.570103,-0.23596 1.127033,-0.49539 1.900143,-0.91054 0.559106,-0.30023 1.097866,-0.62697 1.619023,-0.97772 0.521156,-0.35074 1.024368,-0.725129 1.511535,-1.119829 0.487167,-0.39469 0.958281,-0.8097 1.415418,-1.24178 0.457136,-0.43208 0.900636,-0.88172 1.331701,-1.34462 0.554843,-0.58593 0.920572,-0.95837 1.271757,-1.34204 0.351186,-0.38367 0.687764,-0.77818 1.183391,-1.40715 0.702687,-0.89173 1.353797,-1.82272 1.998844,-2.75797 0.6450474,-0.93525 1.2840954,-1.87495 1.9621544,-2.78484 0.340011,-0.46084 0.683159,-0.93254 1.042831,-1.39165 0.359671,-0.4591 0.735639,-0.90575 1.141532,-1.31516 0.202946,-0.20471 0.413554,-0.40014 0.633036,-0.58343 0.219482,-0.1833 0.447959,-0.35416 0.687297,-0.51005 0.239337,-0.15588 0.489379,-0.29661 0.751892,-0.41909 0.262513,-0.12249 0.537297,-0.22697 0.826306,-0.31006 0.48836,-0.0998 0.978578,-0.16687 1.470195,-0.21291 0.491616,-0.046 0.98453397,-0.0711 1.47846197,-0.0868 0.987857,-0.0314 1.97944503,-0.0252 2.97087803,-0.076 0.97683,-0.0544 1.95472,-0.11969 2.930571,-0.20464 0.975851,-0.0849 1.950111,-0.19002 2.919718,-0.32298 0.969608,-0.13295 1.9347456,-0.29404 2.8928466,-0.49247 0.958101,-0.19844 1.909142,-0.43381 2.850472,-0.7152 0.679167,-0.24419 1.403929,-0.50148 2.126485,-0.79634 0.361278,-0.14742 0.72182,-0.30429 1.075903,-0.47387 0.354084,-0.16958 0.701767,-0.35179 1.03663,-0.54984 0.334862,-0.19805 0.657051,-0.41156 0.960665,-0.644403 0.303613,-0.232845 0.588706,-0.484646 0.849043,-0.75861 0.260338,-0.273965 0.495699,-0.570529 0.700733,-0.891935 0.205034,-0.321407 0.379578,-0.667659 0.517281,-1.042831 0.07231,-0.197 0.113798,-0.402869 0.147278,-0.610815 0.03348,-0.207946 0.05901,-0.417978 0.100252,-0.623735 -0.0093,-0.700965 -0.04807,-1.401237 -0.09612,-2.100647 -0.04805,-0.699409 -0.105574,-1.398052 -0.152962,-2.097029 -0.04739,-0.698978 -0.08418,-1.397877 -0.09147,-2.097547 -0.0073,-0.699669 0.01507,-1.400194 0.08733,-2.10168 0.09206,-0.564758 0.150893,-1.136205 0.276469,-1.69447 0.129678,-0.576501 0.289749,-1.14462 0.486276,-1.697054 0.105399,-0.296278 0.25022,-0.573031 0.377238,-0.858863 h -3.893303 c -0.07452,0.260153 -0.167301,0.513736 -0.229443,0.777731 -0.133985,0.569205 -0.202491,1.151633 -0.303858,1.727543 -0.03029,0.220503 -0.04624,0.44102 -0.06615,0.661458 -0.02764,0.658595 -0.0401,1.451917 -0.05271,2.250509 0.01069,0.432861 0.01415,0.865775 0.03979,1.298628 0.04156,0.701554 0.09653,1.402911 0.142627,2.104782 0.0461,0.70187 0.0833,1.404243 0.09095,2.106848 -0.03633,0.193759 -0.05816,0.391376 -0.08733,0.587044 -0.02917,0.195668 -0.06527,0.389548 -0.130225,0.575675 -0.125346,0.359179 -0.287797,0.690971 -0.480591,0.998389 -0.192793,0.307418 -0.416073,0.590432 -0.664042,0.852144 -0.247969,0.261713 -0.520448,0.501925 -0.81132,0.723987 -0.290872,0.222062 -0.600405,0.425967 -0.921907,0.614433 -0.321503,0.188466 -0.654911,0.361523 -0.994772,0.522449 -0.339861,0.160925 -0.686031,0.309628 -1.031978,0.449068 -0.691894,0.278879 -1.38363,0.520561 -2.026233,0.749821 -0.944177,0.27837 -1.8980796,0.50766 -2.8592566,0.6966 -0.961177,0.18895 -1.929514,0.33765 -2.902148,0.45631 -0.972635,0.11865 -1.949955,0.2069 -2.928504,0.2744 -0.978549,0.0675 -1.95836703,0.11438 -2.93728803,0.14986 -0.427695,0.0299 -0.85765797,0.0363 -1.28829397,0.0336 -0.430636,-0.003 -0.861812,-0.0142 -1.292944,-0.0202 -0.431132,-0.006 -0.862211,-0.007 -1.291394,0.0134 -0.429183,0.02 -0.856786,0.0605 -1.281576,0.13591 -0.297558,0.0528 -0.587785,0.14165 -0.8816,0.21239 -0.293932,0.0965 -0.573157,0.21421 -0.839742,0.34985 -0.266585,0.13564 -0.520563,0.28915 -0.76326,0.45785 -0.242698,0.16871 -0.473811,0.35256 -0.696082,0.54829 -0.222271,0.19573 -0.435484,0.40341 -0.640788,0.62012 -0.410608,0.43341 -0.790945,0.90282 -1.1544514,1.38389 -0.363507,0.48108 -0.710111,0.97379 -1.0542,1.45418 -0.663919,0.91888 -1.294761,1.86327 -1.934765,2.80086 -0.640004,0.93759 -1.289458,1.86813 -1.99006,2.76055 -0.476135,0.60651 -0.814054,1.00379 -1.166337,1.39062 -0.352282,0.38683 -0.718636,0.76334 -1.250569,1.32912 -0.426534,0.45442 -0.86495,0.89589 -1.317233,1.32084 -0.452282,0.42496 -0.918681,0.83368 -1.400431,1.22215 -0.481749,0.38847 -0.979031,0.75679 -1.493966,1.10174 -0.514934,0.34496 -1.047547,0.66625 -1.599385,0.96067 -0.731016,0.39001 -1.296411,0.649759 -1.873788,0.888319 -0.577376,0.23855 -1.166609,0.45577 -1.944584,0.76067 -0.598014,0.21221 -1.20048,0.40461 -1.807125,0.57878 -0.606644,0.17417 -1.217485,0.33055 -1.831412,0.47077 -0.613928,0.14022 -1.231186,0.2643 -1.85105,0.37466 -0.619864,0.11035 -1.242099,0.20689 -1.866553,0.29145 -0.500517,0.0678 -1.006265,0.0989 -1.508951,0.15245 z" />
    </g>
  </g>
</svg>
