 <svg version="1.0" xmlns="http://www.w3.org/2000/svg" width="700.000000pt" height="171.000000pt" viewBox="0 0 700.000000 171.000000" preserveAspectRatio="xMidYMid meet">
<metadata>
Created by potrace 1.12, written by Peter Selinger 2001-2015
</metadata>
<g transform="translate(0.000000,171.000000) scale(0.100000,-0.100000)" fill="#000000" stroke="none">
<path d="M0 855 l0 -855 3500 0 3500 0 0 855 0 855 -3500 0 -3500 0 0 -855z
m689 478 c57 -32 86 -125 60 -190 -28 -69 -45 -92 -77 -107 -31 -15 -36 -15
-58 -1 -13 8 -24 20 -24 25 0 15 41 80 51 80 5 0 9 8 9 18 0 9 7 26 15 36 20
27 19 50 -5 71 -18 16 -25 17 -60 6 -46 -14 -120 -73 -145 -116 -10 -16 -26
-39 -35 -50 -27 -31 -100 -181 -100 -204 0 -6 -4 -19 -9 -29 -36 -70 -41 -217
-10 -289 30 -71 45 -83 99 -83 47 0 68 14 117 73 24 30 63 117 63 142 0 14 5
25 10 25 6 0 10 11 10 25 0 20 -7 26 -41 35 -23 7 -51 9 -62 6 -30 -7 -67 11
-67 34 0 49 128 72 202 35 17 -8 38 -15 48 -15 44 0 50 -39 18 -125 -26 -74
-41 -153 -42 -227 -1 -69 -15 -87 -51 -68 -14 7 -25 19 -25 25 0 7 -7 18 -15
25 -13 11 -20 9 -38 -9 -13 -11 -28 -21 -34 -21 -6 0 -16 -7 -23 -15 -9 -11
-33 -15 -86 -15 -88 0 -137 25 -180 90 -15 22 -32 40 -39 40 -10 0 -12 38 -10
160 2 131 5 162 19 175 9 9 16 25 16 35 0 10 5 22 10 25 6 3 10 12 10 20 0 42
188 295 220 295 5 0 15 6 22 13 23 21 75 47 96 47 12 0 24 5 27 10 10 16 81
11 114 -7z m1079 -27 c4 -41 -9 -74 -113 -291 -59 -123 -77 -169 -95 -235 -7
-25 -17 -56 -22 -70 -6 -14 -12 -51 -14 -83 -3 -49 -1 -57 14 -57 22 0 92 66
127 119 30 45 39 49 53 25 18 -32 -2 -70 -81 -157 -86 -94 -227 -75 -227 30
l0 33 -42 -46 c-23 -25 -64 -57 -91 -70 -48 -25 -49 -25 -93 -8 -40 15 -46 22
-55 60 -12 46 -24 53 -60 31 -17 -9 -23 -9 -26 1 -8 21 -24 13 -77 -36 -89
-83 -167 -90 -218 -20 -18 26 -20 39 -15 94 6 60 31 131 59 164 16 19 62 40
87 40 12 0 24 13 34 39 27 66 126 94 174 49 35 -33 32 -116 -6 -202 -33 -72
-27 -88 20 -58 29 18 51 47 65 85 3 9 10 17 15 17 5 0 9 6 9 13 0 22 112 127
160 149 25 11 55 25 68 31 18 8 29 7 51 -6 37 -22 41 -21 41 3 0 11 4 28 10
38 14 26 37 82 51 127 7 22 18 47 24 55 26 37 55 100 55 121 0 12 3 19 6 16 4
-4 20 5 37 19 43 36 71 29 75 -20z m1034 27 c42 -37 11 -154 -71 -268 -50 -69
-149 -173 -173 -181 -28 -8 -38 -45 -26 -90 5 -22 13 -58 17 -81 10 -53 39
-92 68 -93 6 0 34 23 62 50 52 51 68 59 89 38 8 -8 3 -21 -21 -52 -38 -49 -51
-61 -97 -85 -32 -17 -38 -18 -64 -4 -27 14 -31 14 -43 -3 -7 -10 -13 -37 -13
-59 0 -116 -104 -295 -171 -295 -60 0 -102 86 -81 166 7 24 12 57 12 72 0 15
9 54 20 86 11 33 20 60 20 61 0 2 -26 2 -57 1 -50 -1 -61 -5 -82 -29 -29 -35
-118 -87 -148 -87 -29 0 -93 38 -93 56 0 7 -9 18 -20 24 -25 14 -25 47 0 85
11 17 20 38 20 48 0 31 52 93 107 128 31 20 57 45 62 61 16 45 113 74 161 48
28 -15 55 -93 41 -118 -6 -11 -11 -29 -11 -40 0 -10 -11 -40 -25 -66 -14 -26
-25 -51 -25 -57 0 -15 37 -10 44 6 3 8 12 15 21 15 8 0 15 7 15 15 0 8 5 15
10 15 6 0 10 8 10 18 0 10 6 26 14 37 14 21 28 86 30 145 1 23 7 35 16 36 35
2 40 5 40 23 0 10 16 45 35 77 43 74 85 155 85 166 0 4 25 33 57 63 84 83 129
101 165 68z m673 2 c58 -15 94 -36 133 -78 33 -35 35 -148 4 -198 -28 -46 -70
-83 -111 -99 l-34 -14 29 -10 c101 -37 134 -82 135 -181 1 -57 -3 -72 -32
-116 -27 -43 -122 -129 -142 -129 -4 0 -30 -11 -59 -24 -93 -41 -160 -56 -255
-56 -85 0 -91 1 -116 28 -25 26 -38 81 -19 83 4 0 64 1 134 2 84 2 132 7 140
15 7 7 23 12 36 12 37 0 123 47 161 88 40 43 61 89 61 134 -1 32 -29 78 -48
78 -5 0 -22 6 -38 14 -20 10 -62 14 -134 13 l-105 -2 -3 -30 c-2 -16 -8 -34
-13 -39 -5 -6 -9 -18 -9 -29 0 -21 -27 -114 -41 -139 -5 -10 -9 -27 -9 -39 0
-55 -52 -78 -95 -41 -22 19 -26 85 -6 105 6 6 11 20 11 31 1 23 33 123 44 133
3 3 6 19 6 35 0 15 4 28 9 28 5 0 12 18 16 40 4 22 11 42 16 46 5 3 9 13 9 23
0 21 27 78 41 86 5 4 9 17 9 30 0 13 5 27 10 30 6 3 10 14 10 24 0 10 7 24 15
31 18 15 20 40 2 40 -7 0 -32 -9 -55 -20 -39 -19 -44 -19 -72 -5 -17 9 -30 18
-30 22 0 17 36 43 60 43 15 0 33 7 40 15 7 8 27 15 44 15 17 0 38 5 46 10 23
15 142 12 205 -5z m1803 -17 c16 -16 15 -103 -1 -148 -31 -87 -72 -148 -146
-220 -61 -59 -81 -86 -95 -127 -27 -79 -14 -85 32 -14 53 82 84 101 166 101
62 0 65 -1 85 -34 12 -19 21 -50 21 -74 0 -34 -6 -48 -35 -76 -18 -19 -50 -40
-70 -47 -40 -15 -45 -40 -20 -89 18 -34 33 -37 80 -14 31 15 74 81 75 116 0 7
7 22 15 32 8 11 15 28 15 37 0 10 3 19 8 21 4 2 16 21 27 43 24 48 81 105 106
105 22 0 49 -26 49 -48 0 -10 -6 -26 -14 -37 -14 -20 -63 -106 -76 -135 -19
-40 -30 -91 -24 -114 10 -40 63 -36 104 7 35 38 60 82 60 106 0 12 -5 10 -20
-9 -16 -21 -21 -23 -32 -12 -11 11 -10 15 4 23 9 5 15 16 12 23 -6 15 33 29
42 15 13 -21 24 -6 24 34 0 42 2 45 40 62 39 18 41 17 61 -1 15 -13 19 -26 15
-46 -7 -36 6 -35 35 2 13 17 38 40 55 50 62 39 163 17 182 -39 11 -35 6 -115
-9 -143 -22 -41 -28 -86 -13 -99 20 -16 92 63 100 110 3 20 11 47 17 61 22 48
88 117 127 135 22 10 40 22 40 27 0 4 8 8 18 8 10 0 23 5 30 12 17 17 115 16
135 -1 10 -7 17 -28 17 -47 0 -18 5 -36 10 -39 6 -3 10 -21 10 -40 0 -19 -4
-37 -10 -40 -5 -3 -10 -21 -10 -39 0 -17 -4 -36 -9 -42 -13 -12 -41 -97 -35
-103 8 -8 64 52 101 107 28 43 37 51 49 41 8 -6 14 -19 14 -29 0 -33 -59 -105
-132 -161 -62 -47 -79 -67 -109 -128 -84 -166 -185 -234 -249 -166 -31 33 -24
101 16 148 27 31 89 75 124 87 43 16 70 35 70 51 0 9 3 25 7 34 5 16 4 16 -17
4 -12 -8 -31 -19 -43 -26 -11 -6 -23 -17 -27 -23 -12 -19 -73 -4 -104 25 l-27
25 -36 -27 c-26 -20 -50 -28 -93 -31 -53 -4 -59 -2 -84 24 -30 33 -34 77 -11
139 28 79 12 131 -33 106 -31 -17 -102 -95 -142 -156 -79 -121 -94 -133 -132
-98 -15 13 -23 14 -41 5 -43 -21 -100 -42 -116 -42 -18 0 -75 48 -84 71 -4 11
-11 8 -29 -13 -13 -16 -29 -28 -35 -28 -6 0 -16 -7 -23 -15 -17 -20 -89 -19
-118 1 -44 30 -72 89 -72 148 0 57 14 76 55 76 33 0 75 40 75 71 0 27 -2 29
-40 29 -22 0 -40 -4 -40 -10 0 -5 -6 -10 -14 -10 -7 0 -16 -8 -19 -17 -3 -10
-20 -42 -36 -71 -17 -29 -31 -59 -31 -67 0 -7 -7 -26 -15 -42 -8 -15 -22 -47
-32 -71 -22 -54 -53 -65 -89 -31 -13 12 -24 33 -24 46 0 29 -3 29 -48 -5 -54
-42 -116 -66 -148 -58 -15 4 -39 20 -53 35 l-26 28 -41 -34 c-36 -29 -50 -34
-98 -35 -46 -1 -60 3 -81 22 -14 13 -25 30 -25 38 0 10 -4 12 -12 4 -7 -5 -35
-22 -62 -36 -40 -21 -62 -26 -125 -26 -71 0 -77 2 -108 32 -18 18 -33 38 -33
45 0 19 -7 16 -48 -16 -20 -17 -56 -36 -80 -44 -38 -13 -47 -13 -75 0 -52 26
-67 43 -67 81 0 37 15 102 33 139 15 32 15 105 0 110 -8 3 -13 -4 -13 -16 0
-11 -4 -22 -9 -26 -5 -3 -24 -35 -41 -71 -26 -53 -36 -65 -54 -62 -27 4 -25
28 7 100 51 112 59 138 54 160 -10 37 3 68 36 85 28 14 32 14 43 -2 7 -9 10
-31 7 -49 -4 -28 0 -36 46 -74 51 -43 51 -44 51 -101 0 -53 -12 -98 -42 -158
-6 -11 -7 -26 -4 -32 15 -24 55 -10 105 37 41 38 51 54 51 80 0 18 5 32 10 32
6 0 10 4 10 9 0 39 127 169 190 194 14 5 35 14 48 20 30 14 89 -15 111 -54 32
-58 -47 -172 -155 -223 -30 -14 -63 -26 -72 -26 -10 0 -27 -6 -37 -14 -17 -12
-18 -16 -4 -52 13 -34 19 -39 51 -42 38 -3 106 23 143 55 27 24 66 80 63 90
-2 4 5 17 15 28 34 38 67 83 67 91 1 13 124 104 141 104 8 0 20 5 25 10 15 15
107 17 112 2 2 -6 12 -12 22 -12 34 0 53 -95 25 -124 -8 -8 -15 -28 -15 -45 0
-31 -12 -60 -38 -93 -7 -9 -12 -31 -10 -50 3 -28 6 -33 28 -31 49 5 150 145
150 208 0 14 4 33 9 43 21 44 71 150 84 182 8 19 23 53 33 75 10 22 18 45 18
50 1 6 7 14 14 18 6 4 12 12 12 18 0 16 80 128 107 149 29 22 73 26 91 8z
m-148 -39 c0 -5 -9 -9 -20 -9 -19 0 -27 20 -13 33 7 8 33 -11 33 -24z m558
-216 c-2 -29 -10 -39 -40 -56 -46 -27 -87 -16 -101 26 -11 33 9 61 58 82 25
10 35 10 58 -2 24 -12 28 -19 25 -50z m-1182 -164 c3 -6 -1 -18 -10 -27 -15
-15 -16 -14 -16 11 0 27 13 36 26 16z m-2526 -29 c0 -5 -4 -10 -10 -10 -5 0
-10 5 -10 10 0 6 5 10 10 10 6 0 10 -4 10 -10z m2915 -80 c-5 -8 -11 -8 -17
-2 -6 6 -7 16 -3 22 5 8 11 8 17 2 6 -6 7 -16 3 -22z m1755 15 c10 -12 10 -19
2 -27 -13 -13 -42 6 -42 28 0 19 24 18 40 -1z m-4010 -37 c0 -18 3 -43 6 -55
5 -17 2 -23 -9 -23 -10 0 -16 13 -19 43 -5 46 -1 67 13 67 5 0 9 -15 9 -32z"></path>
<path d="M1000 855 c-26 -32 -24 -151 3 -142 13 4 26 49 34 115 4 33 2 42 -10
42 -8 0 -20 -7 -27 -15z"></path>
<path d="M1347 834 c-87 -90 -140 -264 -81 -264 30 0 115 102 157 188 23 48
45 89 50 90 22 11 1 22 -42 22 -43 0 -53 -4 -84 -36z m65 -56 c-9 -9 -12 -7
-12 12 0 19 3 21 12 12 9 -9 9 -15 0 -24z"></path>
<path d="M887 763 c-19 -30 -47 -124 -47 -155 0 -33 3 -38 23 -38 13 0 35 13
50 28 30 31 34 44 12 36 -8 -4 -15 -2 -16 2 -9 127 -12 143 -22 127z"></path>
<path d="M2703 1208 c-11 -13 -33 -45 -48 -73 -16 -27 -35 -58 -42 -67 -8 -9
-13 -27 -11 -40 2 -18 16 -4 71 77 63 95 78 125 59 125 -5 0 -18 -10 -29 -22z"></path>
<path d="M2195 831 c-12 -28 -15 -50 -10 -80 13 -76 45 -37 60 72 7 42 5 47
-12 47 -13 0 -26 -13 -38 -39z"></path>
<path d="M2071 703 c-25 -94 -23 -133 6 -133 17 0 63 45 63 61 0 5 -4 17 -9
27 -5 9 -13 30 -17 46 -13 43 -31 43 -43 -1z"></path>
<path d="M2448 624 c-23 -58 -35 -101 -53 -184 -17 -86 -19 -130 -6 -130 27 0
70 137 71 222 0 41 4 68 12 70 8 3 8 12 2 32 l-10 29 -16 -39z"></path>
<path d="M3360 1275 c-33 -40 -40 -56 -75 -170 -15 -49 -31 -98 -36 -108 -20
-37 22 -50 71 -22 14 8 37 14 52 15 15 0 30 5 33 10 3 6 14 10 24 10 19 0 91
69 91 88 0 7 5 21 12 31 19 32 -7 106 -47 130 -49 29 -108 36 -125 16z"></path>
<path d="M5186 1144 c-10 -14 -16 -30 -14 -35 2 -6 11 6 21 25 20 42 16 47 -7
10z"></path>
<path d="M4290 872 c-34 -11 -70 -45 -105 -98 -20 -30 -35 -58 -32 -60 8 -8
66 25 104 59 59 53 79 115 33 99z"></path>
<path d="M4623 835 c-46 -39 -102 -122 -121 -176 -16 -47 -16 -109 1 -109 19
0 140 126 133 138 -4 6 1 15 9 20 9 4 29 27 44 50 20 31 26 50 23 77 -6 47
-35 47 -89 0z"></path>
<path d="M6411 855 c-54 -19 -94 -58 -129 -126 -41 -80 -42 -136 -3 -131 47 5
141 126 141 182 0 20 26 53 51 63 12 5 11 7 -1 16 -17 12 -14 12 -59 -4z"></path>
<path d="M6260 383 c-19 -15 -40 -34 -47 -43 -15 -18 -17 -60 -3 -60 13 0 90
99 90 116 0 18 1 18 -40 -13z"></path>
</g>
</svg>